<?xml version="1.0" encoding="UTF-8" standalone="no"?>
<!-- Creator: CorelDRAW -->

<svg
   xml:space="preserve"
   width="1000px"
   height="1000px"
   shape-rendering="geometricPrecision"
   text-rendering="geometricPrecision"
   image-rendering="optimizeQuality"
   fill-rule="evenodd"
   clip-rule="evenodd"
   viewBox="0 0 1000 1000"
   version="1.1"
   id="svg6"
   sodipodi:docname="notepad++linux..svg"
   inkscape:export-filename="notepad_logo.svg"
   inkscape:export-xdpi="96"
   inkscape:export-ydpi="96"
   inkscape:version="1.4.3 (0d15f75, 2025-12-25)"
   xmlns:inkscape="http://www.inkscape.org/namespaces/inkscape"
   xmlns:sodipodi="http://sodipodi.sourceforge.net/DTD/sodipodi-0.dtd"
   xmlns="http://www.w3.org/2000/svg"
   xmlns:svg="http://www.w3.org/2000/svg"><defs
   id="defs6" /><sodipodi:namedview
   id="namedview6"
   pagecolor="#ffffff"
   bordercolor="#000000"
   borderopacity="0.25"
   inkscape:showpageshadow="2"
   inkscape:pageopacity="0.0"
   inkscape:pagecheckerboard="0"
   inkscape:deskcolor="#d1d1d1"
   showgrid="false"
   inkscape:zoom="0.834"
   inkscape:cx="500"
   inkscape:cy="500"
   inkscape:window-width="1920"
   inkscape:window-height="1052"
   inkscape:window-x="1492"
   inkscape:window-y="-8"
   inkscape:window-maximized="1"
   inkscape:current-layer="Ebene_x0020_1" />
 <g
   id="Ebene_x0020_1"
   inkscape:label="Ebene 1">
  <metadata
   id="CorelCorpID_0Corel-Layer" />
  <path
   fill="#007CC3"
   d="M142.591 15.7686l703.852 0c70.1492,0 127.543,57.3942 127.543,127.543l0 703.852c0,70.1492 -57.3942,127.543 -127.543,127.543l-703.852 0c-70.1492,0 -127.543,-57.3942 -127.543,-127.543l0 -703.852c0,-70.1492 57.3942,-127.543 127.543,-127.543z"
   id="path1" />
  <path
   fill="#1F1A17"
   d="M142.591 15.7686l703.852 0c70.1492,0 127.543,57.3942 127.543,127.543l0 703.852c0,70.1492 -57.3942,127.543 -127.543,127.543l-703.852 0c-70.1492,0 -127.543,-57.3942 -127.543,-127.543l0 -703.852c0,-70.1492 57.3942,-127.543 127.543,-127.543zm0 21.7637l703.852 0c58.179,0 105.78,47.6007 105.78,105.78l0 703.852c0,58.179 -47.6007,105.78 -105.78,105.78l-703.852 0c-58.179,0 -105.78,-47.6007 -105.78,-105.78l0 -703.852c0,-58.179 47.6007,-105.78 105.78,-105.78z"
   id="path2" />
  <path
   fill="white"
   fill-rule="nonzero"
   d="M319.629 443.704c-5.81324,0 -12.0546,1.36796 -18.7232,4.10387 -6.75397,2.73545 -13.6791,6.49745 -20.8603,11.1139 -7.18166,4.70227 -14.4487,10.0029 -21.8868,15.902 -7.43818,5.98487 -14.7052,12.1404 -21.8864,18.4672 -3.67664,3.16314 -7.18166,6.06976 -10.516,8.63497 -3.33431,2.56475 -6.66862,4.5311 -10.0883,5.89905 -2.30869,3.84735 -4.78762,8.89149 -7.35283,15.1324 -2.56475,6.24093 -5.12949,13.0807 -7.60889,20.5189 -2.56475,7.43772 -4.87297,15.0466 -7.18166,22.8267 -2.22287,7.78005 -4.10341,14.9617 -5.64253,21.6303 -0.769562,3.50548 -1.45331,6.92514 -1.96635,10.2594 -0.513041,3.33431 -1.11144,6.92514 -1.79518,10.6867 -0.598395,3.762 -1.45377,7.78005 -2.30869,12.1404 -0.940268,4.35993 -2.0517,9.14755 -3.41966,14.534 -0.854915,3.16314 -2.13752,5.72789 -4.01806,7.60889 -1.79565,1.96635 -3.762,3.41966 -5.72835,4.36039 -2.0517,1.02562 -3.9327,1.70983 -5.8137,1.88054 -1.79518,0.256521 -3.24849,0.427688 -4.18922,0.427688 -6.4121,0 -11.5416,-1.53912 -15.5596,-4.5311 -4.01852,-2.99243 -5.98487,-8.80614 -5.98487,-17.5265 0,-2.30869 0.0853531,-4.78762 0.171168,-7.35283 0.170706,-2.6501 0.683748,-5.47137 1.53866,-8.63497 3.67618,-15.902 7.26701,-30.1795 10.6871,-42.8325 3.41966,-12.7388 6.83932,-24.5369 10.3448,-35.3948 3.50501,-10.7725 7.09584,-21.0315 10.6867,-30.6072 3.59083,-9.66059 7.26701,-19.3216 11.0285,-29.068 3.762,-9.83176 7.60935,-19.92 11.7128,-30.3506 4.10387,-10.4302 8.46426,-21.9722 13.1665,-34.7106 1.02562,-2.82127 3.67618,-5.21531 7.86541,-7.09631 4.27458,-1.88054 8.80567,-2.90662 13.6791,-2.90662 6.32674,0 11.5416,1.45331 15.6455,4.27458 4.10387,2.82127 6.15558,6.92514 6.15558,12.3112 0,0.513041 -0.171168,1.36796 -0.513041,2.73591 -0.341874,1.36796 -0.854915,2.73591 -1.53866,4.27504l-10.9437 25.9903c7.01095,-5.47183 14.278,-11.029 21.8868,-16.5004 7.60889,-5.47183 15.3889,-10.516 23.4255,-14.8764 8.03657,-4.44574 16.0731,-8.03657 24.1951,-10.772 8.03611,-2.73591 16.0727,-4.18922 23.8527,-4.18922 16.0731,0 28.5555,4.35993 37.6177,12.9095 8.97684,8.63497 13.5079,21.9722 13.5079,40.0112 0,10.3448 -1.79518,22.0576 -5.38601,35.3094 -3.59083,13.1661 -8.12193,27.2729 -13.5079,42.4053 -5.47183,15.1324 -11.2855,31.0344 -17.5265,47.6206 -6.32674,16.5857 -12.0546,33.5138 -17.4411,50.6979 -1.45331,4.70227 -3.07779,8.63497 -4.61645,11.7986 -1.62448,3.16314 -3.50548,5.72789 -5.64253,7.60889 -2.13752,1.96635 -4.70227,3.33431 -7.60935,4.18922 -2.99197,0.769562 -6.49745,1.19679 -10.6867,1.19679 -6.49745,0 -11.029,-1.19679 -13.5079,-3.59083 -2.47939,-2.47893 -3.762,-6.32628 -3.762,-11.7128 0,-4.61645 0.684209,-10.3448 2.13752,-17.0988 1.36796,-6.75397 3.41966,-14.1921 5.98441,-22.3141 2.56475,-8.12193 5.64253,-16.7569 9.06266,-25.9049 3.41966,-9.23336 7.09584,-18.5521 11.1144,-28.042 3.16314,-7.6947 6.32628,-15.3889 9.40407,-23.0836 3.07779,-7.6947 5.8137,-15.1324 8.29309,-22.3141 2.39404,-7.18166 4.36039,-14.021 5.8137,-20.5189 1.53866,-6.49745 2.30823,-12.4819 2.30823,-18.039 0,-5.12995 -1.11144,-9.7464 -3.41966,-13.5938 -2.22287,-3.9327 -6.4121,-5.89905 -12.6535,-5.89905z"
   id="path3" />
  <path
   fill="white"
   fill-rule="nonzero"
   d="M403.243 741.994c3.33431,-13.5079 6.32628,-25.9049 8.89149,-37.19 2.6501,-11.2855 4.95832,-21.8868 7.1812,-31.804 2.13752,-9.91757 4.18922,-19.5782 6.15558,-28.8115 1.881,-9.23336 3.84735,-18.6379 5.72835,-28.0424 1.881,-9.48988 3.9327,-19.2363 5.98441,-29.4099 2.13752,-10.2594 4.44574,-21.2885 6.92514,-33.3431l12.0546 -58.1361c1.96681,-9.83222 3.33431,-18.296 4.10387,-25.3919 0.769562,-7.09631 1.11144,-13.6791 1.11144,-19.664 0,-6.32674 0.171168,-11.9693 0.513041,-16.9281 0.341874,-4.87297 1.2826,-9.0622 2.73591,-12.4819 1.53866,-3.42012 3.76154,-6.07022 6.66862,-7.78005 2.90662,-1.79565 6.92514,-2.65056 12.14,-2.65056 7.52353,0 13.3372,1.02608 17.5265,3.1636 4.18922,2.0517 7.26701,4.78762 9.23336,8.12193 2.05217,3.33431 3.24896,7.18166 3.67618,11.5416 0.427688,4.27458 0.598856,8.80614 0.598856,13.5084 5.72789,-4.01852 12.3112,-7.60935 19.92,-10.7725 7.60889,-3.16314 15.4743,-5.8137 23.682,-7.86541 8.20728,-2.13752 16.415,-3.762 24.7935,-4.95879 8.37845,-1.11144 16.1585,-1.70983 23.5109,-1.70983 12.0546,0 22.5706,2.13752 31.5474,6.4121 9.06266,4.18922 16.5862,9.91711 22.5706,17.0134 5.98441,7.09584 10.516,15.3036 13.5079,24.5369 2.99243,9.23336 4.53156,18.8086 4.53156,28.6404 0,11.542 -1.79565,22.3999 -5.47183,32.5735 -3.67618,10.1741 -8.72032,19.7493 -15.0471,28.5555 -6.32674,8.89149 -13.7645,17.0988 -22.1429,24.7077 -8.46426,7.60935 -17.6118,14.534 -27.3582,20.9461 -9.7464,6.32674 -19.8347,12.1404 -30.2653,17.3558 -10.4302,5.30066 -20.775,10.0025 -30.949,14.1917 -6.83932,2.82173 -13.3372,4.95879 -19.407,6.32674 -6.07022,1.45331 -11.542,2.13752 -16.415,2.13752 -6.83978,0 -13.5084,-0.769562 -19.9205,-2.22287 -6.4121,-1.53912 -12.653,-4.01852 -18.6374,-7.52353 -3.33431,11.3709 -6.15558,22.2287 -8.37845,32.5735 -2.30869,10.3448 -4.10387,19.4923 -5.38647,27.5289 -0.854915,5.04414 -1.881,10.2594 -2.99243,15.8166 -1.19679,5.47183 -2.39358,10.8578 -3.59037,16.1585 -1.11144,5.21531 -2.22287,10.1736 -3.33431,14.8759 -1.11144,4.70227 -1.96635,8.72078 -2.65056,12.0546 -0.513041,1.96681 -1.70983,3.67664 -3.59083,4.95879 -1.96635,1.36796 -4.27458,2.47939 -6.92514,3.41966 -2.6501,0.94073 -5.38601,1.53912 -8.12193,1.96681 -2.73545,0.427227 -5.21485,0.683748 -7.43772,0.683748 -12.3112,0 -18.4672,-4.87297 -18.4672,-14.534 0,-2.73591 0.427688,-5.55718 1.19725,-8.54962zm77.7143 -145.255c2.47939,0.341874 5.12995,0.769101 7.95122,1.19679 2.82127,0.513041 5.64253,1.02562 8.29309,1.53866 2.6501,0.513041 4.95832,0.94073 6.92468,1.36796 1.881,0.427688 3.1636,0.598395 3.84735,0.598395 3.1636,0 6.75397,-0.341874 10.6013,-1.19679 3.9327,-0.854915 7.86541,-1.96635 11.7986,-3.24896 3.9327,-1.3675 7.69424,-2.82127 11.3704,-4.44574 3.67618,-1.53866 7.01049,-3.07779 9.83222,-4.61645 8.12193,-4.18922 16.8422,-9.23336 26.161,-15.1324 9.23336,-5.89905 17.8683,-12.7388 25.8196,-20.4335 7.86541,-7.69424 14.4487,-16.2439 19.6635,-25.8191 5.12995,-9.48988 7.6947,-20.0059 7.6947,-31.5474 0,-4.61691 -0.513041,-8.97684 -1.70983,-12.9954 -1.19679,-4.01806 -2.90708,-7.52353 -5.30066,-10.516 -2.30823,-2.99197 -5.38601,-5.38601 -9.14801,-7.1812 -3.67618,-1.70983 -8.20728,-2.56475 -13.3372,-2.56475 -5.72789,0 -11.0285,0.341874 -16.0727,1.11144 -4.95879,0.769101 -9.91757,1.96635 -14.7905,3.59037 -4.78808,1.71029 -9.66105,3.84735 -14.5345,6.4121 -4.78762,2.56521 -9.83176,5.72835 -14.9612,9.40453 -4.70227,3.84735 -10.0029,7.18166 -15.8166,10.1741 -5.8137,2.90662 -12.14,4.78762 -19.0651,5.55672l-25.2212 98.7466z"
   id="path4" />
  <path
   fill="white"
   fill-rule="nonzero"
   d="M662.135 286.941c-6.24185,29.3144 -9.30672,48.709 -9.30672,58.1273 0,3.06533 -1.95066,5.57333 -5.79617,7.52353 -3.90133,1.95066 -7.74637,2.95414 -11.7035,2.95414 -4.34701,0 -7.85802,-1.11467 -10.5889,-3.28817 -2.73084,-2.17351 -4.06835,-4.90434 -4.06835,-8.13669 0,-11.6477 3.06533,-30.3733 9.30718,-56.1767 -15.3816,0.334031 -28.6459,1.11467 -39.8475,2.2847 -6.52052,0.668984 -10.9792,1.00348 -13.2639,1.00348 -6.18649,0 -9.30718,-5.46168 -9.30718,-16.3292 0,-4.23582 3.06533,-7.63518 9.08388,-10.1432 6.01901,-2.508 26.3049,-4.01252 60.8023,-4.56985 10.9234,-36.8938 17.8342,-57.57 20.732,-61.9728 2.95368,-4.40284 7.24487,-6.57634 12.9294,-6.57634 8.91686,0 13.3755,2.11814 13.3755,6.3535 0,2.28516 -0.835999,5.74034 -2.45217,10.4218 -1.61617,4.68104 -6.24185,21.6234 -13.877,50.7708 20.5646,-0.613158 37.5069,-0.94765 50.7708,-0.94765 8.52701,0 12.7624,4.23536 12.7624,12.7065 0,10.0315 -6.29768,15.0475 -18.7814,15.0475 -14.1557,0 -31.0976,0.334492 -50.7708,0.947189z"
   id="path5" />
  <path
   fill="white"
   fill-rule="nonzero"
   d="M849.39 286.941c-6.24185,29.3144 -9.30672,48.709 -9.30672,58.1273 0,3.06533 -1.95066,5.57333 -5.79617,7.52353 -3.90133,1.95066 -7.74637,2.95414 -11.7035,2.95414 -4.34701,0 -7.85802,-1.11467 -10.5889,-3.28817 -2.73084,-2.17351 -4.06835,-4.90434 -4.06835,-8.13669 0,-11.6477 3.06533,-30.3733 9.30718,-56.1767 -15.3816,0.334031 -28.6459,1.11467 -39.8475,2.2847 -6.52052,0.668984 -10.9792,1.00348 -13.2639,1.00348 -6.18649,0 -9.30718,-5.46168 -9.30718,-16.3292 0,-4.23582 3.06533,-7.63518 9.08388,-10.1432 6.01901,-2.508 26.3049,-4.01252 60.8023,-4.56985 10.9234,-36.8938 17.8342,-57.57 20.732,-61.9728 2.95368,-4.40284 7.24487,-6.57634 12.9294,-6.57634 8.91686,0 13.3755,2.11814 13.3755,6.3535 0,2.28516 -0.835999,5.74034 -2.45217,10.4218 -1.61617,4.68104 -6.24185,21.6234 -13.877,50.7708 20.5646,-0.613158 37.5069,-0.94765 50.7708,-0.94765 8.52701,0 12.7624,4.23536 12.7624,12.7065 0,10.0315 -6.29768,15.0475 -18.7814,15.0475 -14.1557,0 -31.0976,0.334492 -50.7708,0.947189z"
   id="path6" />
 </g>
</svg>
